<svg width="256" height="256" viewBox="0 0 256 256" fill="none" xmlns="http://www.w3.org/2000/svg">
    <path
        d="M208.5 191.5C209.619 192.615 210.507 193.94 211.112 195.398C211.718 196.857 212.03 198.421 212.03 200C212.03 201.579 211.718 203.143 211.112 204.602C210.507 206.06 209.619 207.385 208.5 208.5C206.236 210.735 203.182 211.988 200 211.988C196.818 211.988 193.765 210.735 191.5 208.5L128 145L64.5002 208.5C62.2357 210.735 59.1819 211.988 56.0002 211.988C52.8184 211.988 49.7647 210.735 47.5002 208.5C46.3814 207.385 45.4938 206.06 44.8881 204.602C44.2825 203.143 43.9707 201.579 43.9707 200C43.9707 198.421 44.2825 196.857 44.8881 195.398C45.4938 193.94 46.3814 192.615 47.5002 191.5L111 128L47.5002 64.5C45.2458 62.2457 43.9794 59.1881 43.9794 56C43.9794 54.4214 44.2903 52.8583 44.8944 51.3998C45.4985 49.9414 46.3839 48.6162 47.5002 47.5C48.6164 46.3838 49.9416 45.4983 51.4 44.8942C52.8584 44.2901 54.4216 43.9792 56.0002 43.9792C59.1883 43.9792 62.2458 45.2457 64.5002 47.5L128 111L191.5 47.5C193.755 45.2457 196.812 43.9792 200 43.9792C203.188 43.9792 206.246 45.2457 208.5 47.5C210.755 49.7543 212.021 52.8119 212.021 56C212.021 59.1881 210.755 62.2457 208.5 64.5L145 128L208.5 191.5Z"
        fill="black"/>
</svg>
